HIERARCHY
ROOT hip
{
	OFFSET 0.000000 0.000000 0.000000 
	CHANNELS 6 Xposition Yposition Zposition Xrotation Zrotation Yrotation
	JOINT abdomen
	{
		OFFSET 0.000000 3.402643 0.000000 
		CHANNELS 3 Xrotation Zrotation Yrotation
		JOINT chest
		{
			OFFSET 0.000000 8.438565 -0.680529 
			CHANNELS 3 Xrotation Zrotation Yrotation
			JOINT neck
			{
				OFFSET 0.000000 10.207942 -0.272212 
				CHANNELS 3 Xrotation Zrotation Yrotation
				JOINT head
				{
					OFFSET 0.000000 3.130431 0.000000 
					CHANNELS 3 Xrotation Zrotation Yrotation
					End Site
					{
						OFFSET 0.000000 3.130435 0.000000 
					}
				}
			}
			JOINT lCollar
			{
				OFFSET 3.470700 6.669187 -0.816635 
				CHANNELS 3 Yrotation Zrotation Xrotation
				JOINT lShldr
				{
					OFFSET 3.198488 0.000000 0.000000 
					CHANNELS 3 Zrotation Yrotation Xrotation
					JOINT lForeArm
					{
						OFFSET 10.139888 0.000000 0.000000 
						CHANNELS 3 Yrotation Zrotation Xrotation
						JOINT lHand
						{
							OFFSET 8.370511 0.000000 0.000000 
							CHANNELS 3 Zrotation Yrotation Xrotation
							End Site
							{
								OFFSET 4.083176 0.000000 0.000000 
							}
						}
					}
				}
			}
			JOINT rCollar
			{
				OFFSET -3.470700 6.669187 -0.816635 
				CHANNELS 3 Yrotation Zrotation Xrotation
				JOINT rShldr
				{
					OFFSET -3.198488 0.000000 0.000000 
					CHANNELS 3 Zrotation Yrotation Xrotation
					JOINT rForeArm
					{
						OFFSET -10.139888 0.000000 0.000000 
						CHANNELS 3 Yrotation Zrotation Xrotation
						JOINT rHand
						{
							OFFSET -8.370511 0.000000 0.000000 
							CHANNELS 3 Zrotation Yrotation Xrotation
							End Site
							{
								OFFSET -4.083176 0.000000 0.000000 
							}
						}
					}
				}
			}
		}
	}
	JOINT lThigh
	{
		OFFSET 5.308129 -1.633274 1.361059 
		CHANNELS 3 Xrotation Zrotation Yrotation
		JOINT lShin
		{
			OFFSET -2.041588 -20.007561 0.000000 
			CHANNELS 3 Xrotation Zrotation Yrotation
			JOINT lFoot
			{
				OFFSET 0.000000 -19.190928 -1.224953 
				CHANNELS 3 Xrotation Yrotation Zrotation
				End Site
				{
					OFFSET 0.000000 -2.449906 4.627600 
				}
			}
		}
	}
	JOINT rThigh
	{
		OFFSET -5.308129 -1.633274 1.361059 
		CHANNELS 3 Xrotation Zrotation Yrotation
		JOINT rShin
		{
			OFFSET 2.041588 -20.007561 0.000000 
			CHANNELS 3 Xrotation Zrotation Yrotation
			JOINT rFoot
			{
				OFFSET 0.000000 -19.190928 -1.224953 
				CHANNELS 3 Xrotation Yrotation Zrotation
				End Site
				{
					OFFSET 0.000000 -2.449906 4.627600 
				}
			}
		}
	}
}
MOTION
Frames: 19
Frame Time: 0.033333
34.717781 52.214947 -52.319454 -9.218749 -6.787109 141.336731 37.527622 -10.730702 -5.201212 -18.046877 7.832032 1.152344 51.063168 8.107644 2.471410 -51.298828 -1.738281 -6.318360 2.000000 -2.000000 0.000000 -37.363281 -11.279297 14.570313 -76.235512 -0.995825 -2.872603 -49.401741 43.108692 -89.364868 -2.000000 2.000000 0.000000 52.392578 -12.021485 0.185547 77.774979 0.607694 -2.758327 58.432747 -69.721039 -72.543106 -13.296298 8.940306 13.713056 24.240080 -4.834076 -2.296459 -7.938797 3.392504 -4.692461 -23.386822 -21.051516 -18.113150 29.347902 4.442302 2.416672 19.420982 -7.509169 -2.802752 
35.242096 52.183437 -52.954048 -9.218749 -6.601562 141.493027 37.345364 -10.516419 -5.243980 -18.046877 7.832032 1.152344 51.063168 8.107644 2.471410 -51.806644 -1.523437 -6.484375 2.000000 -2.000000 0.000000 -37.255859 -11.650391 14.570310 -75.891342 -1.166793 -2.784460 -48.720291 42.587337 -88.992027 -2.000000 2.000000 0.000000 52.207031 -12.187500 -0.246202 77.950760 0.607694 -2.758327 59.728466 -69.704323 -73.580498 -11.997402 9.008127 13.602941 23.360926 -4.798807 -2.178012 -8.639859 3.272758 -4.264706 -25.917826 -20.029154 -16.958927 28.119587 4.491327 2.483747 16.047649 -7.934253 -0.607306 
35.800671 52.041637 -53.685265 -9.218750 -6.425781 141.825073 37.150471 -10.378416 -5.138189 -18.037109 8.007813 1.192767 51.063168 8.107644 2.471410 -52.333984 -1.660156 -6.650391 2.000000 -2.000000 0.000000 -37.597656 -11.582032 14.589844 -75.883675 -0.995260 -2.862857 -48.859779 42.721088 -89.059319 -2.000000 2.000000 0.000000 52.060547 -11.630860 -0.615234 77.422874 0.616312 -2.738271 59.687412 -69.870209 -73.068008 -10.749699 8.805591 13.862152 22.982594 -4.896995 -2.154916 -10.386333 3.163929 -4.345330 -28.287210 -19.068047 -15.509570 26.354406 4.569740 2.367236 11.720621 -8.926070 2.085511 
36.325451 51.836803 -54.449005 -9.384766 -6.435547 142.000870 36.971935 -9.784348 -5.104490 -17.861328 7.822266 1.357422 51.063168 8.107644 2.471410 -53.056644 -1.767578 -6.620965 2.000000 -2.000000 0.000000 -38.212891 -11.357422 14.304718 -75.544144 -1.175829 -2.940387 -48.716312 42.959003 -89.156860 -2.000000 2.000000 0.000000 51.347656 -11.376953 -0.361329 77.423134 0.626627 -2.747453 60.354694 -70.244278 -73.474548 -9.245617 8.921914 13.773845 22.474262 -4.838065 -2.121493 -11.981644 2.695178 -4.276574 -30.369062 -17.976707 -14.222163 23.890230 4.754694 1.552141 7.466468 -10.091864 3.981225 
36.935974 51.639851 -55.200592 -9.384766 -6.093750 142.303665 36.952179 -9.195844 -5.085519 -17.685547 7.812500 1.376953 51.063168 8.107644 2.471410 -53.798832 -2.236328 -6.572266 2.000000 -2.000000 0.000000 -38.457031 -11.445313 14.101562 -75.179977 -1.023378 -2.841670 -48.374508 43.412739 -89.184227 -2.000000 2.000000 0.000000 50.810547 -11.279297 -0.380860 77.435776 0.798580 -2.845068 60.597050 -70.515450 -73.587914 -8.013680 9.074418 14.369687 22.841949 -4.818247 -2.323565 -14.445045 2.267427 -3.875293 -32.049046 -16.971247 -14.059987 21.599617 4.774938 1.970013 5.404652 -10.726656 4.628870 
37.615818 51.411392 -55.892231 -9.365234 -5.752109 142.587692 36.777729 -8.600375 -5.086719 -17.333986 7.812500 1.425781 51.063168 8.107644 2.471410 -54.726563 -2.675781 -6.328176 2.000000 -2.000000 0.000000 -39.335938 -11.289063 13.699262 -74.659996 -1.213843 -2.752397 -47.791389 43.180164 -89.100975 -2.000000 2.000000 0.000000 50.439449 -10.615235 -0.214844 77.422867 0.626062 -2.737707 60.390942 -70.929832 -73.619431 -6.961877 9.782577 14.266994 23.336737 -4.788431 -2.358330 -15.764372 2.363132 -3.184690 -32.138115 -15.810356 -15.022028 16.489225 4.939843 1.419559 6.965266 -11.345582 4.258531 
38.396561 51.175041 -56.481117 -9.560546 -5.380859 142.909241 36.764900 -7.864314 -4.959752 -16.992188 7.617188 1.602857 51.063168 8.107644 2.471410 -55.644531 -3.134766 -6.240768 2.000000 -2.000000 0.000000 -39.853516 -10.820313 13.259886 -74.652344 -1.042312 -2.830793 -47.568733 43.463448 -88.650627 -2.000000 2.000000 0.000000 50.273441 -10.224609 -0.167749 77.435509 0.788266 -2.835886 60.570000 -71.445702 -74.140312 -6.267632 10.677521 14.316251 24.559132 -4.720733 -2.309717 -15.919421 2.625288 -2.586904 -31.275946 -14.401370 -16.874203 9.958841 5.106299 1.042464 10.290812 -10.656265 3.188044 
39.770355 50.954460 -57.464134 -9.707030 -5.029297 143.212036 36.585812 -7.266263 -4.939958 -16.816408 7.607422 1.630859 51.063168 8.107644 2.471410 -56.591797 -3.750000 -5.947267 2.000000 -2.000000 0.000000 -40.498047 -10.439453 13.015811 -74.124680 -1.080744 -2.818786 -47.596725 43.141823 -89.249985 -2.000000 2.000000 0.000000 50.263672 -9.697266 0.301091 78.127327 0.658136 -2.784744 60.507977 -71.700165 -74.459694 -5.965099 11.780260 14.169168 26.697157 -4.770106 -2.487199 -15.320915 2.794238 -1.569221 -31.100317 -13.503493 -17.246082 6.779478 5.191448 0.071912 11.226501 -10.303520 2.562673 
40.676422 50.678726 -57.849007 -9.716796 -4.687500 143.505066 36.569435 -6.532170 -4.837080 -16.474611 7.421875 1.630860 51.063168 8.107644 2.471410 -57.509769 -4.199218 -5.654298 2.000000 -2.000000 0.000000 -40.488281 -9.785156 12.685547 -74.124428 -1.060681 -2.810172 -48.008804 42.847752 -89.418388 -2.000000 2.000000 0.000000 50.634766 -9.218750 0.693359 78.478119 0.578446 -2.760018 59.303993 -72.495750 -73.881065 -5.711718 12.932492 14.321425 29.877672 -4.517925 -2.856910 -15.073268 2.974110 -0.839300 -33.257320 -13.932244 -16.389719 14.190540 5.055750 0.922079 10.039017 -11.048983 3.177297 
41.531696 50.332085 -57.975258 -9.697266 -4.355469 143.632080 36.580856 -5.933876 -4.818031 -16.113281 7.412109 1.865235 51.063168 8.107644 2.471410 -58.623051 -4.609375 -5.498047 2.000000 -2.000000 0.000000 -40.849609 -8.583983 13.095703 -73.948647 -1.060681 -2.810172 -48.484158 42.478455 -89.324631 -2.000000 2.000000 0.000000 50.986328 -8.906250 0.986329 79.006020 0.560078 -2.780638 58.380474 -73.089729 -73.656349 -6.522704 14.302461 13.335711 33.180851 -4.342210 -2.906196 -12.351762 3.826458 1.389941 -35.151897 -13.864129 -15.522347 20.368538 4.813660 1.875601 8.711257 -11.650277 4.008426 
42.133774 50.040592 -58.158215 -9.697266 -4.160156 143.768814 36.594444 -5.335486 -4.800253 -15.937500 7.226563 1.835938 51.063168 8.107644 2.471410 -59.541019 -5.048828 -5.351563 2.000000 -2.000000 0.000000 -40.703121 -7.314454 13.592507 -73.948647 -1.060681 -2.810172 -48.715588 41.755390 -89.466606 -2.000000 2.000000 0.000000 51.152344 -8.564453 1.150891 79.357857 0.550894 -2.790947 58.270870 -73.680862 -73.906837 -8.163980 15.819882 12.100989 38.144318 -4.074078 -3.268206 -6.505094 5.206410 3.900778 -36.247269 -13.396777 -14.302374 25.294746 4.617562 2.291366 7.765186 -12.626454 4.894141 
43.952393 50.024841 -57.372147 -9.697266 -4.160156 143.593048 36.580429 -5.193780 -4.704538 -15.761721 7.216797 1.865235 51.063168 8.107644 2.471410 -60.468750 -5.312500 -5.214845 2.000000 -2.000000 0.000000 -40.507813 -6.279297 13.857422 -73.772858 -1.070430 -2.809606 -49.032684 41.241871 -89.615021 -2.000000 2.000000 0.000000 50.957031 -8.476563 1.160670 79.534439 0.581837 -2.818492 57.677185 -73.647224 -73.205139 -10.984290 17.065603 10.950362 42.373001 -3.820548 -3.571671 6.572430 5.713386 5.374708 -35.535419 -12.635769 -13.582044 27.417610 4.520731 2.287601 7.573536 -13.289643 5.356653 
43.325554 49.615185 -57.449211 -9.365234 -4.365353 143.242203 36.742874 -5.058908 -4.591431 -15.585937 7.207031 2.071537 51.063168 8.107644 2.471410 -61.337891 -5.224609 -5.302735 2.000000 -2.000000 0.000000 -40.478516 -5.400391 14.266659 -73.762589 -0.727510 -2.800164 -49.397007 40.378407 -89.915100 -2.000000 2.000000 0.000000 50.390621 -8.447267 1.181641 79.533646 0.541145 -2.791510 56.720642 -73.991814 -71.470200 -13.748448 17.389748 9.999354 46.084461 -3.984484 -3.748173 11.562597 10.080235 4.331471 -33.890415 -11.725165 -13.396050 27.411953 4.573354 2.230598 7.507773 -13.598550 5.356500 
44.354618 50.048473 -57.817421 -9.013672 -4.863281 142.596420 36.729141 -5.147860 -4.438000 -15.585937 7.207031 2.071537 51.063168 8.107644 2.471410 -62.041019 -5.146483 -5.605470 2.000000 -2.000000 0.000000 -41.191406 -5.000000 13.719853 -73.596794 -1.079614 -2.799295 -49.151592 40.601681 -89.221863 -2.000000 2.000000 0.000000 50.039063 -8.398438 1.074219 79.357857 0.550894 -2.790947 57.410191 -73.791527 -71.823578 -16.863127 16.803677 9.996257 49.403587 -3.565477 -4.042086 12.658010 15.364623 -1.689182 -31.771793 -11.354260 -13.728360 27.591150 4.524891 2.419396 5.617467 -13.234462 4.772470 
45.953140 50.584187 -58.801128 -8.486329 -5.410157 141.933594 36.709949 -5.384232 -4.392016 -15.410156 7.197265 2.080078 51.063168 8.107644 2.471410 -62.626953 -5.605468 -5.449219 2.000000 -2.000000 0.000000 -41.503906 -4.453125 13.212891 -73.586250 -0.736130 -2.780107 -49.409546 39.870220 -89.657898 -2.000000 2.000000 0.000000 49.501953 -7.792968 1.640625 79.181816 0.540579 -2.781765 57.967808 -73.823090 -72.554390 -19.442575 16.063562 10.268661 51.011082 -3.644018 -4.046475 12.943790 19.007540 -6.224953 -29.489199 -11.013788 -13.824057 27.066338 4.589007 2.390709 3.467954 -12.471918 4.016085 
47.543327 51.096260 -59.853355 -7.958984 -6.113281 141.092712 36.852230 -5.691283 -4.184923 -15.410156 7.197265 2.255860 51.063168 8.107644 2.471410 -63.105469 -6.787109 -4.951172 2.000000 -2.000000 0.000000 -42.275387 -4.248047 12.137948 -73.433556 -1.271063 -2.895751 -49.294003 40.011543 -89.488602 -2.000000 2.000000 0.000000 48.652348 -7.431641 1.795612 79.190147 0.762813 -3.072164 58.662376 -73.892502 -73.109497 -21.519541 15.123026 11.197230 50.833183 -3.614694 -3.834629 13.033022 17.842335 -6.782259 -26.829315 -10.610568 -14.322060 25.989172 4.598337 2.159260 1.949896 -11.844328 3.056794 
49.093834 51.592579 -60.979290 -7.460937 -6.640625 140.223480 36.833923 -6.145706 -4.086314 -15.410156 7.197265 2.255860 51.063168 8.107644 2.471410 -63.457035 -8.291016 -4.238281 2.000000 -2.000000 0.000000 -42.939453 -4.384766 11.385974 -73.772858 -1.070430 -2.809606 -49.367123 40.396568 -89.212776 -2.000000 2.000000 0.000000 48.486324 -7.138671 2.412109 78.829964 0.559513 -2.770892 59.557705 -73.704445 -74.312004 -22.909615 14.218290 12.245028 48.897987 -3.731297 -3.724248 11.973292 15.169780 -5.702196 -23.774073 -10.367117 -15.139797 24.427855 4.666878 2.045701 0.196342 -11.246851 2.660609 
50.538567 51.986488 -62.124313 -7.089843 -7.167968 139.549561 36.982841 -6.603511 -3.979842 -15.410155 7.373047 2.481722 51.063168 8.107644 2.471410 -63.798828 -9.648438 -3.720704 2.000000 -2.000000 0.000000 -43.349609 -4.716797 10.731621 -73.772858 -1.070430 -2.809606 -48.933983 40.366436 -89.260880 -2.000000 2.000000 0.000000 47.949219 -6.523438 2.762562 78.666824 0.741214 -2.867942 60.441532 -73.545906 -75.475838 -24.077925 13.248247 13.175895 45.370518 -3.938158 -3.707801 9.984697 13.020933 -4.366081 -20.896231 -10.330238 -14.985859 22.675303 4.824358 1.590716 -1.038609 -10.085983 2.122076 
51.847790 52.293724 -63.287849 -6.738281 -7.333984 139.003906 37.118587 -7.152553 -3.739890 -15.410155 7.373047 2.481722 51.063168 8.107644 2.471410 -64.042969 -10.117187 -3.566169 2.000000 -2.000000 0.000000 -43.115231 -5.429688 10.887750 -73.772858 -1.070430 -2.809606 -48.746922 40.338123 -88.901581 -2.000000 2.000000 0.000000 47.597656 -6.064453 2.929687 78.478127 0.568697 -2.760582 61.214859 -73.441025 -76.427002 -24.595053 12.505789 13.947020 39.209026 -4.132879 -3.394671 6.046752 12.229331 -4.039904 -18.139305 -10.121840 -16.133038 20.912510 4.803442 1.918781 -2.036398 -9.277139 1.786795 
